<svg xmlns="http://www.w3.org/2000/svg" version="1.1" xmlns:xlink="http://www.w3.org/1999/xlink" xmlns:svgjs="http://svgjs.com/svgjs" width="512" height="512" x="0" y="0" viewBox="0 0 58 54" style="enable-background:new 0 0 512 512" xml:space="preserve"><g><g xmlns="http://www.w3.org/2000/svg" id="Page-1" fill="none" fill-rule="evenodd"><g id="027---Buttons" fill="rgb(0,0,0)" fill-rule="nonzero"><path id="Shape" d="m14 26c-7.7319865 0-14 6.2680135-14 14s6.2680135 14 14 14 14-6.2680135 14-14-6.2680135-14-14-14zm-3.654 5.775c-4.23733041 1.8903164-6.35493837 6.6821607-4.9 11.088.16336946.5274221-.13163662 1.0874412-.659 1.251-.09706183.0304644-.19827164.0456458-.3.045-.4371091.0004636-.82386744-.2830242-.955-.7-1.76739777-5.3746423.82686551-11.2138966 6-13.505.32754175-.1538635.7126545-.1187624 1.0069823.0917815.2943279.2105438.4519414.5636754.4121235.9233588-.0398178.3596834-.2708535.6697905-.6041058.8108597zm3.654-.775c-.5522847 0-1-.4477153-1-1s.4477153-1 1-1 1 .4477153 1 1-.4477153 1-1 1z" fill="#000000" data-original="#000000"></path><path id="Shape" d="m29 0c-7.7319865 0-14 6.2680135-14 14s6.2680135 14 14 14 14-6.2680135 14-14c0-3.7130309-1.4749958-7.27398564-4.1005051-9.89949494-2.6255093-2.62550929-6.186464-4.10050506-9.8994949-4.10050506zm-7.09 19.64c-.4672427.2943103-1.0845986.1541853-1.379-.313-2.5068423-3.9483898-1.9240865-9.1099408 1.4-12.4 3.3111064-3.28040797 8.4408315-3.85957048 12.4-1.4.467509.29436778.6078677.91199095.3135 1.37949998-.2943678.46750903-.911991.60786777-1.3795.31350002-3.1633068-1.99342169-7.2851621-1.5318283-9.9291653 1.11193545s-3.1059699 6.76557725-1.1128347 9.92906455c.2943103.4672427.1541853 1.0845986-.313 1.379zm10.8-7.933c-.2859742.2860606-.7161158.3716717-1.0898272.2169084-.3737115-.1547633-.6173863-.5194187-.6173863-.9239084s.2436748-.7691451.6173863-.9239084c.3737114-.15476332.803853-.0691522 1.0898272.2169084.3895547.3913276.3882117 1.0243289-.003 1.414zm0 6c-.2859742.2860606-.7161158.3716717-1.0898272.2169084-.3737115-.1547633-.6173863-.5194187-.6173863-.9239084s.2436748-.7691451.6173863-.9239084c.3737114-.1547633.803853-.0691522 1.0898272.2169084.3895547.3913276.3882117 1.0243289-.003 1.414zm-3-3c-.2859742.2860606-.7161158.3716717-1.0898272.2169084-.3737115-.1547633-.6173863-.5194187-.6173863-.9239084s.2436748-.7691451.6173863-.9239084c.3737114-.1547633.803853-.0691522 1.0898272.2169084.3895547.3913276.3882117 1.0243289-.003 1.414zm-3-3c-.2859742.2860606-.7161158.3716717-1.0898272.2169084-.3737115-.1547633-.6173863-.5194187-.6173863-.9239084s.2436748-.7691451.6173863-.9239084c.3737114-.15476332.803853-.0691522 1.0898272.2169084.3895547.3913276.3882117 1.0243289-.003 1.414zm0 6c-.2859742.2860606-.7161158.3716717-1.0898272.2169084-.3737115-.1547633-.6173863-.5194187-.6173863-.9239084s.2436748-.7691451.6173863-.9239084c.3737114-.1547633.803853-.0691522 1.0898272.2169084.3895547.3913276.3882117 1.0243289-.003 1.414zm9.364 3.364c-1.8877705 1.8727853-4.4408711 2.920995-7.1 2.915-1.8744963.005134-3.7121013-.5208371-5.3-1.517-.467509-.2943678-.6078677-.911991-.3135-1.3795.2943678-.467509.911991-.6078677 1.3795-.3135 3.1624187 1.9847669 7.2768962 1.5200841 9.9169902-1.1200098 2.6400939-2.640094 3.1047767-6.7545715 1.1200098-9.9169902-.1964568-.30237817-.2149051-.68710637-.048282-1.00689473.1666231-.31978835.4925089-.52510412.8528949-.53734392.3603859-.01223981.699451.17049221.8873871.47823865 2.506266 3.947495 1.9243956 9.1077456-1.398 12.398z" fill="#000000" data-original="#000000"></path><path id="Shape" d="m44 26c-7.7319865 0-14 6.2680135-14 14s6.2680135 14 14 14 14-6.2680135 14-14c0-3.7130309-1.4749958-7.2739856-4.1005051-9.8994949s-6.186464-4.1005051-9.8994949-4.1005051zm-7.09 19.64c-.4672427.2943103-1.0845986.1541853-1.379-.313-2.5068423-3.9483898-1.9240865-9.1099408 1.4-12.4 3.3111064-3.280408 8.4408315-3.8595705 12.4-1.4.3024253.1904226.4802886.5277222.4665905.8848415s-.2168766.6798033-.533.8465c-.3161234.1666968-.6971652.1520811-.9995905-.0383415-3.1633068-1.9934217-7.2851621-1.5318283-9.9291653 1.1119355-2.6440032 2.6437637-3.1059699 6.7655772-1.1128347 9.9290645.2943103.4672427.1541853 1.0845986-.313 1.379zm10.8-3.347c.2599566.2510745.3642126.6228779.2726972.9725073-.0915155.3496295-.3645604.6226744-.7141899.7141899-.3496294.0915154-.7214328-.0127406-.9725073-.2726972l-2.296-2.293-2.293 2.293c-.3923789.3789722-1.0160848.3735524-1.4018186-.0121814s-.3911536-1.0094397-.0121814-1.4018186l2.293-2.293-2.293-2.293c-.3789722-.3923789-.3735524-1.0160848.0121814-1.4018186s1.0094397-.3911536 1.4018186-.0121814l2.293 2.293 2.293-2.293c.3923789-.3789722 1.0160848-.3735524 1.4018186.0121814s.3911536 1.0094397.0121814 1.4018186l-2.293 2.293zm3.364 4.778c-1.8877705 1.8727853-4.4408711 2.920995-7.1 2.915-1.8744963.005134-3.7121013-.5208371-5.3-1.517-.3024253-.1904226-.4802886-.5277222-.4665905-.8848415s.2168766-.6798033.533-.8465c.3161234-.1666968.6971652-.1520811.9995905.0383415 3.1624187 1.9847669 7.2768962 1.5200841 9.9169902-1.1200098 2.6400939-2.640094 3.1047767-6.7545715 1.1200098-9.9169902-.1964568-.3023782-.2149051-.6871064-.048282-1.0068947.1666231-.3197884.4925089-.5251041.8528949-.537344.3603859-.0122398.699451.1704923.8873871.4782387 2.506266 3.947495 1.9243956 9.1077456-1.398 12.398z" fill="#000000" data-original="#000000"></path></g></g></g></svg>