<svg xmlns="http://www.w3.org/2000/svg" version="1.1" xmlns:xlink="http://www.w3.org/1999/xlink" xmlns:svgjs="http://svgjs.com/svgjs" width="512" height="512" x="0" y="0" viewBox="0 0 56 56" style="enable-background:new 0 0 512 512" xml:space="preserve"><g><g xmlns="http://www.w3.org/2000/svg" id="Page-1" fill="none" fill-rule="evenodd"><g id="015---Buttons" fill="rgb(0,0,0)" fill-rule="nonzero"><path id="Shape" d="m19 18c-10.49341025 0-19 8.5065898-19 19s8.50658975 19 19 19c10.4934102 0 19-8.5065898 19-19-.0115735-10.4886126-8.5113874-18.9884265-19-19zm-11.682 26.721c.21968987.2975376.25721468.6920366.09756069 1.0256574-.15965398.3336208-.49041282.551878-.85993935.5674465-.36952654.0155685-.71747143-.1740943-.90462134-.4931039-4.19549127-6.3434945-3.34575336-14.7637308 2.03255982-20.1410738s13.79870268-6.2255618 20.14144018-2.0289262c.4278212.3158861.5335688.9113626.2406698 1.3552377-.292899.4438752-.8819745.5808601-1.3406698.3117623-5.550136-3.6704865-12.9169938-2.9272521-17.62212294 1.7778771-4.70512915 4.7051291-5.44836352 12.0719869-1.77787706 17.6221229zm17.182-9.721c-1.9329966 0-3.5-1.5670034-3.5-3.5s1.5670034-3.5 3.5-3.5 3.5 1.5670034 3.5 3.5-1.5670034 3.5-3.5 3.5zm3.5 7.5c0 1.9329966-1.5670034 3.5-3.5 3.5s-3.5-1.5670034-3.5-3.5 1.5670034-3.5 3.5-3.5 3.5 1.5670034 3.5 3.5zm-14.5-7.5c-1.9329966 0-3.5-1.5670034-3.5-3.5s1.5670034-3.5 3.5-3.5 3.5 1.5670034 3.5 3.5-1.5670034 3.5-3.5 3.5zm3.5 7.5c0 1.9329966-1.5670034 3.5-3.5 3.5s-3.5-1.5670034-3.5-3.5 1.5670034-3.5 3.5-3.5 3.5 1.5670034 3.5 3.5zm13.313 5.813c-5.382342 5.364429-13.7908402 6.2145483-20.138 2.036-.42782118-.3158861-.53356884-.9113626-.24066982-1.3552377.29289902-.4438752.88197452-.5808601 1.34066982-.3117623 5.550136 3.6704865 12.9169938 2.9272521 17.6221229-1.7778771 4.7051292-4.7051291 5.4483636-12.0719869 1.7778771-17.6221229-.2690978-.4586953-.1321129-1.0477708.3117623-1.3406698.4438751-.292899 1.0393516-.1871514 1.3552377.2406698 4.1753255 6.3443478 3.3283782 14.7474517-2.029 20.131z" fill="#000000" data-original="#000000"></path><path id="Shape" d="m37 0c-9.361279-.03933619-17.3391311 6.78387159-18.752 16.038.252-.009.5-.038.752-.038.760103.002003 1.5195428.0450658 2.275.129.5687225-3.1998623 2.1071803-6.14761298 4.407-8.444 5.3839953-5.36201406 13.7905555-6.21310523 20.14-2.039.2996197.1966145.4711212.53852831.4495519.89624883-.0215692.35772052-.232911.6765503-.5539843.83573933s-.7027841.13439642-1.0005676-.06498816c-5.5550471-3.64936647-12.9079185-2.90351978-17.617 1.787-1.9992631 1.9962709-3.3414197 4.5553347-3.847 7.335 8.1975877 1.7120148 14.6024876 8.1173074 16.314 16.315 2.7792644-.5069209 5.3375851-1.8501003 7.333-3.85 4.6893954-4.7104123 5.433558-12.0635568 1.783-17.618-.2050912-.2975792-.2336583-.682665-.0747215-1.0072492s.4806432-.53815402.8414712-.55862372c.3608279-.0204697.7046242.15534627.8992503.45987292 4.1745943 6.348314 3.3252032 14.7541556-2.035 20.139-2.2972757 2.3006185-5.2460203 3.8397465-8.447 4.409.0853067.7557164.1297048 1.5154912.133 2.276 0 .254-.029.5-.038.752 9.7927276-1.5448441 16.7497935-10.3620785 15.9743431-20.2455361-.7754503-9.88345755-9.0225116-17.507785-18.9363431-17.5064639zm-5.5 17c-1.9329966 0-3.5-1.5670034-3.5-3.5s1.5670034-3.5 3.5-3.5 3.5 1.5670034 3.5 3.5-1.5670034 3.5-3.5 3.5zm11 11c-1.9329966 0-3.5-1.5670034-3.5-3.5s1.5670034-3.5 3.5-3.5 3.5 1.5670034 3.5 3.5-1.5670034 3.5-3.5 3.5zm0-11c-1.9329966 0-3.5-1.5670034-3.5-3.5s1.5670034-3.5 3.5-3.5 3.5 1.5670034 3.5 3.5-1.5670034 3.5-3.5 3.5z" fill="#000000" data-original="#000000"></path></g></g></g></svg>