<svg viewBox="0 0 34 34" xmlns="http://www.w3.org/2000/svg">
<path d="M33.718 0.354684C33.4702 0.0822424 33.1008 -0.04574 32.7377 0.0147463C32.6267 0.0332463 29.9777 0.484907 26.2929 1.96165C22.8979 3.32234 17.9421 5.85301 13.613 10.1822L13.1168 10.6784V14.9227C13.1168 15.5214 12.6315 16.0067 12.0328 16.0067C11.4342 16.0067 10.9488 15.5214 10.9488 14.9227V12.8464L8.04686 15.7483C6.58174 17.2134 5.4893 19.0359 4.88762 21.0187L2.84149 27.7619V26.5338C2.84149 25.9351 2.35616 25.4498 1.75751 25.4498C1.15886 25.4498 0.673523 25.9351 0.673523 26.5338V31.7935L18.1859 14.2811C18.6091 13.8579 19.2955 13.8579 19.7188 14.2811C20.1422 14.7044 20.1422 15.3908 19.7188 15.8141L2.20613 33.3268H7.46642C8.06507 33.3268 8.5504 32.8415 8.5504 32.2428C8.5504 31.6442 8.06507 31.1588 7.46642 31.1588H6.23711L12.9812 29.1124C14.9639 28.5108 16.7864 27.4185 18.2516 25.9532L18.5004 25.7043H15.7575C15.1588 25.7043 14.6735 25.219 14.6735 24.6203C14.6735 24.0217 15.1588 23.5363 15.7575 23.5363H20.6684L23.8177 20.3871C25.838 18.3667 27.7358 15.7175 29.4584 12.5129C29.639 12.177 29.6297 11.7708 29.434 11.4435C29.2383 11.1161 28.8849 10.9157 28.5036 10.9157H27.0446L31.3075 8.21791C31.4957 8.09889 31.6426 7.92465 31.7283 7.71913C33.2136 4.15694 33.9335 1.47523 33.9634 1.36279C34.0582 1.00688 33.9657 0.627198 33.718 0.354684Z"/>
</svg>
